# xmcd CD database file
#
# Track frame offsets:
#	150
#	17342
#	32592
#	45383
#	60280
#	71898
#	94347
#	109325
#	123285
#	139371
#	156014
#
# Disc length: 2495 seconds
#
# Revision: 0
# Processed by: cddbd v1.5.2PL0 Copyright (c) Steve Scherf et al.
# Submitted via: CDex 1.70beta3
#
DISCID=8d09bd0b
DTITLE=オリジナル・ビッグ・フォア - オリジナル・ビッグ・フォア
DYEAR=1959
DGENRE=Jazz
TTITLE0=バードランドの子守唄
TTITLE1=スターダスト
TTITLE2=サヴォイでストンプ
TTITLE3=ブルースの誕生
TTITLE4=イエスタデイズ
TTITLE5=ジャンピン・アット・ザ・ウッドサイド
TTITLE6=ジャスト・ワン・オブ・ゾーズ・シングス
TTITLE7=キャリオカ
TTITLE8=フラミンゴ
TTITLE9=ブルース・イン・ザ・クローゼット
TTITLE10=Ａ列車で行こう
EXTD=YEAR: 1959
EXTT0=
EXTT1=
EXTT2=
EXTT3=
EXTT4=
EXTT5=
EXTT6=
EXTT7=
EXTT8=
EXTT9=
EXTT10=
PLAYORDER=
